<svg width="24" height="23" viewBox="0 0 24 23" fill="none" xmlns="http://www.w3.org/2000/svg">
<path d="M7.77656 18.2531C7.77656 18.3469 7.66875 18.4219 7.53281 18.4219C7.37812 18.4359 7.27031 18.3609 7.27031 18.2531C7.27031 18.1594 7.37813 18.0844 7.51406 18.0844C7.65469 18.0703 7.77656 18.1453 7.77656 18.2531ZM6.31875 18.0422C6.28594 18.1359 6.37969 18.2437 6.52031 18.2719C6.64219 18.3187 6.78281 18.2719 6.81094 18.1781C6.83906 18.0844 6.75 17.9766 6.60938 17.9344C6.4875 17.9016 6.35156 17.9484 6.31875 18.0422ZM8.39062 17.9625C8.25469 17.9953 8.16094 18.0844 8.175 18.1922C8.18906 18.2859 8.31094 18.3469 8.45156 18.3141C8.5875 18.2813 8.68125 18.1922 8.66719 18.0984C8.65312 18.0094 8.52656 17.9484 8.39062 17.9625ZM11.475 0C4.97344 0 0 4.93594 0 11.4375C0 16.6359 3.27188 21.0844 7.94531 22.65C8.54531 22.7578 8.75625 22.3875 8.75625 22.0828C8.75625 21.7922 8.74219 20.1891 8.74219 19.2047C8.74219 19.2047 5.46094 19.9078 4.77188 17.8078C4.77188 17.8078 4.2375 16.4437 3.46875 16.0922C3.46875 16.0922 2.39531 15.3562 3.54375 15.3703C3.54375 15.3703 4.71094 15.4641 5.35312 16.5797C6.37969 18.3891 8.1 17.8688 8.77031 17.5594C8.87813 16.8094 9.18281 16.2891 9.52031 15.9797C6.9 15.6891 4.25625 15.3094 4.25625 10.8C4.25625 9.51094 4.6125 8.86406 5.3625 8.03906C5.24063 7.73438 4.84219 6.47812 5.48438 4.85625C6.46406 4.55156 8.71875 6.12188 8.71875 6.12188C9.65625 5.85938 10.6641 5.72344 11.6625 5.72344C12.6609 5.72344 13.6688 5.85938 14.6063 6.12188C14.6063 6.12188 16.8609 4.54687 17.8406 4.85625C18.4828 6.48281 18.0844 7.73438 17.9625 8.03906C18.7125 8.86875 19.1719 9.51562 19.1719 10.8C19.1719 15.3234 16.4109 15.6844 13.7906 15.9797C14.2219 16.35 14.5875 17.0531 14.5875 18.1547C14.5875 19.7344 14.5734 21.6891 14.5734 22.0734C14.5734 22.3781 14.7891 22.7484 15.3844 22.6406C20.0719 21.0844 23.25 16.6359 23.25 11.4375C23.25 4.93594 17.9766 0 11.475 0ZM4.55625 16.1672C4.49531 16.2141 4.50938 16.3219 4.58906 16.4109C4.66406 16.4859 4.77187 16.5188 4.83281 16.4578C4.89375 16.4109 4.87969 16.3031 4.8 16.2141C4.725 16.1391 4.61719 16.1062 4.55625 16.1672ZM4.05 15.7875C4.01719 15.8484 4.06406 15.9234 4.15781 15.9703C4.23281 16.0172 4.32656 16.0031 4.35938 15.9375C4.39219 15.8766 4.34531 15.8016 4.25156 15.7547C4.15781 15.7266 4.08281 15.7406 4.05 15.7875ZM5.56875 17.4562C5.49375 17.5172 5.52187 17.6578 5.62969 17.7469C5.7375 17.8547 5.87344 17.8688 5.93437 17.7938C5.99531 17.7328 5.96719 17.5922 5.87344 17.5031C5.77031 17.3953 5.62969 17.3812 5.56875 17.4562ZM5.03438 16.7672C4.95938 16.8141 4.95938 16.9359 5.03438 17.0438C5.10938 17.1516 5.23594 17.1984 5.29688 17.1516C5.37188 17.0906 5.37188 16.9688 5.29688 16.8609C5.23125 16.7531 5.10938 16.7063 5.03438 16.7672Z" fill="black"/>
</svg>
