<svg width="26" height="26" viewBox="0 0 26 26" fill="none" xmlns="http://www.w3.org/2000/svg">
<path fill-rule="evenodd" clip-rule="evenodd" d="M7.02724 2.52793C8.05614 2.44582 9.03293 2.04123 9.81853 1.37174C11.6518 -0.190578 14.3482 -0.190578 16.1815 1.37174C16.9671 2.04123 17.9439 2.44582 18.9728 2.52793C21.3738 2.71954 23.2805 4.62617 23.4721 7.02722C23.5542 8.05613 23.9588 9.03291 24.6283 9.81852C26.1906 11.6518 26.1906 14.3482 24.6283 16.1815C23.9588 16.9671 23.5542 17.9439 23.4721 18.9728C23.2805 21.3738 21.3738 23.2805 18.9728 23.4721C17.9439 23.5542 16.9671 23.9588 16.1815 24.6283C14.3482 26.1906 11.6518 26.1906 9.81853 24.6283C9.03293 23.9588 8.05614 23.5542 7.02724 23.4721C4.62618 23.2805 2.71955 21.3738 2.52794 18.9728C2.44583 17.9439 2.04124 16.9671 1.37175 16.1815C-0.190567 14.3482 -0.190567 11.6518 1.37175 9.81852C2.04124 9.03291 2.44583 8.05613 2.52794 7.02722C2.71955 4.62617 4.62618 2.71954 7.02724 2.52793ZM18.9314 10.9314C19.5562 10.3065 19.5562 9.29347 18.9314 8.66863C18.3065 8.04379 17.2935 8.04379 16.6686 8.66863L11.4 13.9373L9.33138 11.8686C8.70654 11.2438 7.69348 11.2438 7.06864 11.8686C6.4438 12.4935 6.4438 13.5065 7.06864 14.1314L10.2686 17.3314C10.8935 17.9562 11.9065 17.9562 12.5314 17.3314L18.9314 10.9314Z" fill="#10B981"/>
</svg>
