<svg width="20" height="20" viewBox="0 0 20 20" fill="none" xmlns="http://www.w3.org/2000/svg">
<path d="M0.771054 10.2181C0.895979 9.82722 1.04456 9.03035 1.39095 8.33001C3.07649 4.92863 5.68384 2.45473 9.16565 0.951846C9.8376 0.662246 10.6373 0.569498 11.3793 0.565713C12.3068 0.560981 12.9286 1.20643 13.0099 2.14242C13.0525 2.62982 13.0469 3.17116 12.8793 3.61976C11.2298 8.03189 8.11704 10.9866 3.74087 12.6466C3.57052 12.7109 3.38029 12.7279 3.19669 12.7526C1.70705 12.957 0.74834 12.1128 0.771054 10.2181V10.2181ZM12.2235 6.94826C14.6425 6.77885 17.0208 6.61229 19.5127 6.4372C19.331 6.26401 19.2288 6.15044 19.1105 6.0558C16.9413 4.31631 14.7665 2.58439 12.6058 0.834491C12.3919 0.6613 12.2594 0.388735 11.9736 0.010174C12.9021 0.010174 13.6526 0.00165624 14.4031 0.0120667C15.3088 0.0253163 16.2362 -0.0626993 17.1164 0.100082C19.0196 0.452144 20.0351 1.67963 19.9991 3.61408C19.966 5.42739 19.7786 7.23786 19.6442 9.04833C19.4389 11.8203 19.2231 14.5924 19.0092 17.3634C18.9723 17.8414 18.9278 18.3193 18.8795 18.8871C17.8735 17.9909 16.911 17.1344 15.9504 16.277C15.8264 16.1662 15.7233 16.0233 15.5861 15.9353C14.4116 15.1876 13.9213 14.0728 13.6544 12.7402C13.3062 10.9989 12.7961 9.28966 12.3569 7.56626C12.3077 7.37319 12.2718 7.17634 12.2225 6.94637L12.2235 6.94826ZM3.15315 17.5499C3.67083 17.4779 4.15539 17.4477 4.61724 17.3284C4.79895 17.282 5.00999 17.0606 5.06867 16.8751C5.50402 15.4981 5.9034 14.1087 6.31509 12.7251C6.35105 12.604 6.40121 12.4866 6.46746 12.3059C8.98678 13.1122 11.4862 13.9128 14.0595 14.7362C12.7203 16.0877 11.296 17.2205 9.70416 18.2389C12.5405 18.4556 15.3769 18.6723 18.2133 18.889C18.2133 18.925 18.2133 18.9619 18.2142 18.9979C17.6028 19.0414 16.9915 19.0868 16.3801 19.1275C12.7724 19.3651 9.16565 19.6017 5.55796 19.8373C4.98444 19.8752 4.40998 19.9376 3.8374 19.9272C1.40893 19.8828 0.0328585 18.5521 0.00162714 16.1161C-0.0163545 14.7476 0.12466 13.3772 0.211729 12.0087C0.218354 11.9055 0.365993 11.8109 0.44833 11.7125C0.570416 11.8213 0.74834 11.9065 0.807963 12.0428C1.53291 13.7236 2.24082 15.4119 2.95346 17.0975C3.01119 17.2328 3.07271 17.3663 3.15315 17.5499V17.5499Z" fill="#EB5757"/>
</svg>
