<svg width="24" height="17" viewBox="0 0 24 17" fill="none" xmlns="http://www.w3.org/2000/svg">
<path d="M9.67429 8.82423L2.38642 16.1121C2.03493 16.4636 1.46508 16.4636 1.11363 16.1121L0.263577 15.2621C-0.0873113 14.9112 -0.0879863 14.3425 0.262077 13.9908L6.03791 8.18782L0.262114 2.38488C-0.0879488 2.03317 -0.0872738 1.46448 0.263614 1.1136L1.11363 0.263585C1.46512 -0.0879024 2.03497 -0.0879024 2.38642 0.263585L9.67429 7.55144C10.0258 7.90289 10.0258 8.47274 9.67429 8.82423ZM24 15.6878V14.4878C24 13.9908 23.5971 13.5878 23.1 13.5878H11.7C11.2029 13.5878 10.8 13.9908 10.8 14.4878V15.6878C10.8 16.1849 11.2029 16.5878 11.7 16.5878H23.1C23.5971 16.5878 24 16.1849 24 15.6878Z" fill="black"/>
</svg>
