<svg width="19" height="19" viewBox="0 0 19 19" fill="none" xmlns="http://www.w3.org/2000/svg">
<path d="M18 1H19C19 0.734784 18.8946 0.48043 18.7071 0.292893C18.5196 0.105357 18.2652 0 18 0V1ZM17 13C17 13.2652 17.1054 13.5196 17.2929 13.7071C17.4804 13.8946 17.7348 14 18 14C18.2652 14 18.5196 13.8946 18.7071 13.7071C18.8946 13.5196 19 13.2652 19 13H17ZM6 0C5.73478 0 5.48043 0.105357 5.29289 0.292893C5.10535 0.48043 5 0.734784 5 1C5 1.26522 5.10535 1.51957 5.29289 1.70711C5.48043 1.89464 5.73478 2 6 2V0ZM1.293 16.293C1.19749 16.3852 1.1213 16.4956 1.0689 16.6176C1.01649 16.7396 0.988901 16.8708 0.987747 17.0036C0.986593 17.1364 1.01189 17.2681 1.06218 17.391C1.11246 17.5138 1.18671 17.6255 1.2806 17.7194C1.3745 17.8133 1.48615 17.8875 1.60904 17.9378C1.73194 17.9881 1.86362 18.0134 1.9964 18.0123C2.12918 18.0111 2.2604 17.9835 2.3824 17.9311C2.50441 17.8787 2.61475 17.8025 2.707 17.707L1.293 16.293ZM17 1V13H19V1H17ZM18 0H6V2H18V0ZM17.293 0.293L1.293 16.293L2.707 17.707L18.707 1.707L17.293 0.293V0.293Z" fill="#BE185D"/>
</svg>
